<svg xmlns="http://www.w3.org/2000/svg" xmlns:xlink="http://www.w3.org/1999/xlink" zoomAndPan="magnify" preserveAspectRatio="xMidYMid meet" version="1.0" viewBox="127.35 169 97.1 47.09"><defs><g/><clipPath id="id1"><path d="M 199.699219 169 L 224.449219 169 L 224.449219 202.535156 L 199.699219 202.535156 Z M 199.699219 169 " clip-rule="nonzero"/></clipPath><clipPath id="id2"><path d="M 134.824219 203.335938 L 154.464844 203.335938 L 154.464844 216.085938 L 134.824219 216.085938 Z M 134.824219 203.335938 " clip-rule="nonzero"/></clipPath><clipPath id="id3"><path d="M 154.152344 203.335938 L 173.792969 203.335938 L 173.792969 216.085938 L 154.152344 216.085938 Z M 154.152344 203.335938 " clip-rule="nonzero"/></clipPath></defs><g clip-path="url(#id1)"><path fill="rgb(100%, 100%, 100%)" d="M 221.429688 171.207031 C 221.03125 171.207031 220.648438 171.28125 220.277344 171.433594 C 219.90625 171.582031 219.582031 171.796875 219.300781 172.074219 C 219.015625 172.351562 218.796875 172.671875 218.644531 173.035156 C 218.492188 173.398438 218.414062 173.777344 218.414062 174.167969 L 218.414062 178.222656 C 218.101562 178.019531 217.765625 177.878906 217.398438 177.800781 C 217.035156 177.726562 216.667969 177.714844 216.300781 177.773438 C 215.929688 177.828125 215.585938 177.949219 215.261719 178.136719 C 214.941406 178.320312 214.664062 178.554688 214.429688 178.84375 C 214.199219 178.554688 213.921875 178.320312 213.597656 178.136719 C 213.277344 177.949219 212.929688 177.828125 212.5625 177.773438 C 212.191406 177.714844 211.824219 177.726562 211.460938 177.800781 C 211.097656 177.878906 210.757812 178.019531 210.445312 178.222656 L 210.445312 172.171875 C 210.457031 171.773438 210.386719 171.390625 210.234375 171.019531 C 210.085938 170.648438 209.871094 170.320312 209.585938 170.035156 C 209.300781 169.75 208.972656 169.53125 208.597656 169.378906 C 208.226562 169.222656 207.835938 169.144531 207.429688 169.144531 C 207.023438 169.144531 206.632812 169.222656 206.261719 169.378906 C 205.886719 169.53125 205.558594 169.75 205.273438 170.035156 C 204.988281 170.320312 204.773438 170.648438 204.625 171.019531 C 204.472656 171.390625 204.402344 171.773438 204.414062 172.171875 L 204.414062 180.917969 L 203.390625 180.917969 C 202.90625 180.921875 202.445312 181.011719 201.996094 181.191406 C 201.550781 181.375 201.15625 181.632812 200.816406 181.96875 C 200.472656 182.304688 200.210938 182.691406 200.027344 183.128906 C 199.839844 183.566406 199.75 184.023438 199.75 184.5 L 199.75 190.695312 C 199.746094 192.273438 200.050781 193.792969 200.667969 195.253906 C 201.28125 196.714844 202.164062 198 203.304688 199.117188 L 204.078125 199.875 C 204.8125 200.597656 205.660156 201.15625 206.621094 201.546875 C 207.585938 201.941406 208.585938 202.132812 209.625 202.132812 L 216.828125 202.132812 C 217.476562 202.132812 218.109375 202.054688 218.738281 201.898438 C 219.363281 201.746094 219.960938 201.519531 220.53125 201.21875 C 221.101562 200.917969 221.625 200.554688 222.101562 200.128906 C 222.582031 199.699219 223 199.222656 223.355469 198.695312 C 224.085938 197.613281 224.453125 196.425781 224.449219 195.125 L 224.449219 174.167969 C 224.449219 173.777344 224.371094 173.398438 224.21875 173.035156 C 224.066406 172.671875 223.847656 172.351562 223.5625 172.074219 C 223.28125 171.796875 222.953125 171.582031 222.585938 171.433594 C 222.214844 171.28125 221.832031 171.207031 221.429688 171.207031 Z M 216.765625 179.078125 C 216.984375 179.078125 217.195312 179.121094 217.394531 179.203125 C 217.597656 179.285156 217.777344 179.402344 217.929688 179.554688 C 218.085938 179.707031 218.203125 179.882812 218.289062 180.078125 C 218.371094 180.277344 218.414062 180.484375 218.414062 180.699219 L 218.414062 186.808594 C 218.414062 187.023438 218.371094 187.230469 218.289062 187.429688 C 218.207031 187.628906 218.085938 187.804688 217.929688 187.957031 C 217.777344 188.109375 217.597656 188.226562 217.394531 188.308594 C 217.195312 188.390625 216.984375 188.429688 216.765625 188.429688 C 216.546875 188.429688 216.335938 188.390625 216.132812 188.308594 C 215.929688 188.226562 215.753906 188.109375 215.597656 187.957031 C 215.441406 187.804688 215.324219 187.628906 215.238281 187.429688 C 215.15625 187.230469 215.113281 187.023438 215.113281 186.808594 L 215.113281 180.699219 C 215.113281 180.484375 215.15625 180.277344 215.238281 180.078125 C 215.324219 179.882812 215.441406 179.707031 215.597656 179.554688 C 215.753906 179.402344 215.929688 179.285156 216.132812 179.203125 C 216.335938 179.121094 216.546875 179.078125 216.765625 179.078125 Z M 212.097656 179.078125 C 212.316406 179.078125 212.527344 179.121094 212.726562 179.203125 C 212.929688 179.285156 213.109375 179.402344 213.261719 179.554688 C 213.417969 179.707031 213.535156 179.882812 213.621094 180.078125 C 213.703125 180.277344 213.746094 180.484375 213.746094 180.699219 L 213.746094 186.808594 C 213.753906 187.027344 213.714844 187.238281 213.636719 187.445312 C 213.554688 187.648438 213.4375 187.828125 213.28125 187.984375 C 213.125 188.144531 212.945312 188.265625 212.738281 188.347656 C 212.535156 188.433594 212.320312 188.476562 212.097656 188.476562 C 211.875 188.476562 211.660156 188.433594 211.453125 188.347656 C 211.25 188.265625 211.070312 188.144531 210.914062 187.984375 C 210.757812 187.828125 210.640625 187.648438 210.558594 187.445312 C 210.476562 187.238281 210.441406 187.027344 210.445312 186.808594 L 210.445312 185.828125 C 210.9375 185.429688 211.320312 184.945312 211.59375 184.378906 C 211.867188 183.8125 212.003906 183.214844 212.003906 182.589844 C 212.003906 182.382812 211.964844 182.179688 211.886719 181.988281 C 211.808594 181.796875 211.699219 181.621094 211.554688 181.472656 C 211.410156 181.320312 211.242188 181.199219 211.050781 181.109375 C 210.863281 181.015625 210.660156 180.964844 210.449219 180.949219 L 210.449219 180.699219 C 210.453125 180.484375 210.492188 180.277344 210.578125 180.082031 C 210.660156 179.882812 210.777344 179.707031 210.933594 179.554688 C 211.085938 179.402344 211.265625 179.285156 211.46875 179.203125 C 211.667969 179.121094 211.878906 179.078125 212.097656 179.078125 Z M 205.78125 172.171875 C 205.773438 171.953125 205.8125 171.742188 205.890625 171.539062 C 205.972656 171.332031 206.089844 171.152344 206.246094 170.996094 C 206.402344 170.839844 206.582031 170.71875 206.789062 170.632812 C 206.992188 170.546875 207.207031 170.503906 207.429688 170.503906 C 207.652344 170.503906 207.867188 170.546875 208.074219 170.632812 C 208.277344 170.71875 208.457031 170.839844 208.613281 170.996094 C 208.769531 171.152344 208.886719 171.332031 208.96875 171.539062 C 209.046875 171.742188 209.085938 171.953125 209.078125 172.171875 L 209.078125 180.917969 L 205.78125 180.917969 Z M 223.082031 195.125 C 223.082031 196.152344 222.792969 197.09375 222.210938 197.945312 C 221.609375 198.832031 220.832031 199.527344 219.878906 200.027344 C 218.921875 200.53125 217.902344 200.78125 216.820312 200.777344 L 209.617188 200.777344 C 208.757812 200.78125 207.929688 200.621094 207.136719 200.300781 C 206.339844 199.976562 205.640625 199.515625 205.03125 198.917969 L 204.257812 198.160156 C 203.246094 197.171875 202.46875 196.027344 201.921875 194.734375 C 201.378906 193.4375 201.105469 192.089844 201.113281 190.6875 L 201.113281 184.5 C 201.113281 184.203125 201.167969 183.917969 201.285156 183.640625 C 201.402344 183.367188 201.566406 183.125 201.78125 182.917969 C 201.992188 182.707031 202.238281 182.546875 202.519531 182.433594 C 202.796875 182.320312 203.089844 182.261719 203.390625 182.261719 L 210.304688 182.261719 C 210.398438 182.261719 210.476562 182.292969 210.539062 182.359375 C 210.605469 182.421875 210.636719 182.5 210.636719 182.589844 C 210.636719 182.976562 210.5625 183.347656 210.410156 183.703125 C 210.261719 184.058594 210.046875 184.375 209.769531 184.648438 C 209.488281 184.921875 209.167969 185.132812 208.804688 185.28125 C 208.441406 185.429688 208.0625 185.503906 207.671875 185.503906 L 206.671875 185.503906 C 206.375 185.503906 206.085938 185.558594 205.808594 185.671875 C 205.535156 185.785156 205.289062 185.945312 205.078125 186.152344 C 204.867188 186.359375 204.703125 186.597656 204.589844 186.871094 C 204.476562 187.140625 204.417969 187.421875 204.417969 187.71875 L 204.417969 190.757812 C 204.417969 190.945312 204.484375 191.101562 204.617188 191.234375 C 204.75 191.363281 204.914062 191.429688 205.101562 191.429688 C 205.628906 191.429688 206.136719 191.53125 206.625 191.730469 C 207.113281 191.929688 207.542969 192.210938 207.917969 192.578125 C 208.289062 192.945312 208.578125 193.367188 208.78125 193.84375 C 208.984375 194.324219 209.085938 194.824219 209.085938 195.34375 C 209.085938 195.527344 209.152344 195.6875 209.285156 195.816406 C 209.417969 195.949219 209.578125 196.011719 209.769531 196.011719 C 209.957031 196.011719 210.117188 195.949219 210.253906 195.816406 C 210.386719 195.6875 210.453125 195.527344 210.453125 195.34375 C 210.453125 194.703125 210.335938 194.085938 210.105469 193.488281 C 209.875 192.890625 209.546875 192.351562 209.117188 191.871094 C 208.6875 191.390625 208.183594 191.003906 207.609375 190.703125 C 207.035156 190.402344 206.425781 190.210938 205.78125 190.128906 L 205.78125 187.714844 C 205.78125 187.472656 205.867188 187.265625 206.039062 187.097656 C 206.214844 186.925781 206.421875 186.84375 206.667969 186.839844 L 207.667969 186.839844 C 208.152344 186.835938 208.625 186.753906 209.078125 186.589844 L 209.078125 186.804688 C 209.078125 187.109375 209.125 187.410156 209.21875 187.699219 C 209.316406 187.992188 209.453125 188.261719 209.632812 188.511719 C 209.8125 188.761719 210.023438 188.980469 210.273438 189.164062 C 210.523438 189.347656 210.792969 189.492188 211.085938 189.59375 C 211.378906 189.695312 211.683594 189.75 211.992188 189.761719 C 212.304688 189.769531 212.609375 189.734375 212.910156 189.648438 C 213.207031 189.566406 213.488281 189.441406 213.746094 189.269531 C 214.007812 189.101562 214.234375 188.898438 214.429688 188.660156 C 214.625 188.898438 214.851562 189.101562 215.113281 189.273438 C 215.371094 189.441406 215.652344 189.566406 215.953125 189.652344 C 216.25 189.734375 216.558594 189.773438 216.867188 189.761719 C 217.179688 189.753906 217.480469 189.695312 217.777344 189.59375 C 218.070312 189.492188 218.339844 189.351562 218.589844 189.164062 C 218.835938 188.980469 219.050781 188.761719 219.230469 188.515625 C 219.410156 188.265625 219.546875 187.992188 219.640625 187.703125 C 219.734375 187.410156 219.78125 187.113281 219.78125 186.804688 L 219.78125 174.167969 C 219.789062 173.957031 219.835938 173.757812 219.921875 173.5625 C 220.007812 173.371094 220.128906 173.199219 220.28125 173.054688 C 220.4375 172.90625 220.613281 172.792969 220.8125 172.714844 C 221.011719 172.632812 221.21875 172.59375 221.433594 172.59375 C 221.648438 172.59375 221.855469 172.632812 222.050781 172.714844 C 222.25 172.792969 222.429688 172.90625 222.582031 173.054688 C 222.734375 173.199219 222.855469 173.371094 222.941406 173.5625 C 223.027344 173.757812 223.074219 173.957031 223.082031 174.167969 Z M 223.082031 195.125 " fill-opacity="1" fill-rule="nonzero"/></g><g fill="rgb(100%, 100%, 100%)" fill-opacity="1"><g transform="translate(126.096647, 199.340027)"><g><path d="M 22.371094 -12.113281 L 22.371094 -20.121094 L 19.859375 -20.121094 L 19.859375 -16.65625 C 18.863281 -17.738281 17.695312 -18.605469 16.3125 -19.210938 C 14.925781 -19.816406 13.414062 -20.164062 11.855469 -20.164062 C 10.382812 -20.164062 9 -19.859375 7.703125 -19.339844 C 6.402344 -18.820312 5.320312 -18.085938 4.371094 -17.132812 C 3.417969 -16.183594 2.640625 -15.101562 2.078125 -13.890625 C 1.515625 -12.632812 1.253906 -11.292969 1.253906 -9.910156 C 1.253906 -8.480469 1.515625 -7.140625 2.078125 -5.925781 C 2.640625 -4.671875 3.417969 -3.589844 4.371094 -2.640625 C 5.320312 -1.6875 6.402344 -0.953125 7.703125 -0.433594 C 9 0.0859375 10.382812 0.347656 11.855469 0.347656 C 13.757812 0.347656 15.488281 -0.0859375 17.132812 -0.996094 C 18.777344 -1.902344 20.074219 -3.160156 21.027344 -4.757812 C 21.375 -5.363281 21.675781 -6.058594 21.9375 -6.792969 L 19.558594 -7.570312 C 19.46875 -7.3125 19.339844 -7.050781 19.253906 -6.792969 C 19.125 -6.535156 18.996094 -6.273438 18.863281 -6.058594 C 18.128906 -4.847656 17.132812 -3.894531 15.921875 -3.203125 C 14.667969 -2.507812 13.328125 -2.164062 11.855469 -2.164062 C 10.730469 -2.164062 9.648438 -2.335938 8.695312 -2.769531 C 7.703125 -3.160156 6.835938 -3.722656 6.101562 -4.414062 C 5.363281 -5.105469 4.800781 -5.925781 4.371094 -6.878906 C 3.9375 -7.832031 3.765625 -8.828125 3.765625 -9.910156 C 3.765625 -10.945312 3.9375 -11.941406 4.371094 -12.894531 C 4.800781 -13.84375 5.363281 -14.667969 6.101562 -15.359375 C 6.835938 -16.050781 7.703125 -16.613281 8.695312 -17.046875 C 9.648438 -17.4375 10.730469 -17.652344 11.855469 -17.652344 C 12.808594 -17.652344 13.714844 -17.480469 14.582031 -17.175781 C 15.445312 -16.875 16.269531 -16.441406 16.960938 -15.921875 C 17.652344 -15.359375 18.257812 -14.710938 18.777344 -13.933594 C 19.253906 -13.152344 19.601562 -12.332031 19.816406 -11.464844 L 22.238281 -11.984375 L 22.238281 -12.113281 Z M 22.371094 -12.113281 "/></g></g></g><g fill="rgb(100%, 100%, 100%)" fill-opacity="1"><g transform="translate(149.719688, 199.340027)"><g><path d="M 17.308594 -20.335938 L 1.253906 -20.335938 L 1.253906 -17.828125 L 6.621094 -17.828125 L 6.621094 -2.464844 L 1.253906 -2.464844 L 1.253906 0.0429688 L 17.046875 0.0429688 C 18.171875 0.0429688 19.253906 -0.171875 20.378906 -0.648438 C 21.503906 -1.125 22.5 -1.816406 23.363281 -2.683594 C 24.230469 -3.546875 24.964844 -4.628906 25.527344 -5.882812 C 26.046875 -7.097656 26.351562 -8.480469 26.351562 -9.996094 C 26.351562 -11.640625 26.046875 -13.109375 25.527344 -14.40625 C 25.007812 -15.664062 24.316406 -16.746094 23.449219 -17.609375 C 22.585938 -18.476562 21.632812 -19.167969 20.550781 -19.601562 C 19.46875 -20.03125 18.390625 -20.292969 17.308594 -20.335938 Z M 17.046875 -2.421875 L 9.042969 -2.421875 L 9.042969 -17.78125 L 17.265625 -17.78125 C 17.871094 -17.78125 18.5625 -17.609375 19.339844 -17.351562 C 20.121094 -17.089844 20.8125 -16.613281 21.503906 -16.007812 C 22.152344 -15.402344 22.714844 -14.582031 23.148438 -13.585938 C 23.582031 -12.589844 23.839844 -11.378906 23.839844 -9.996094 C 23.839844 -8.738281 23.582031 -7.660156 23.148438 -6.707031 C 22.714844 -5.753906 22.152344 -4.976562 21.503906 -4.371094 C 20.8125 -3.722656 20.074219 -3.246094 19.296875 -2.898438 C 18.519531 -2.554688 17.738281 -2.421875 17.046875 -2.421875 Z M 17.046875 -2.421875 "/></g></g></g><g fill="rgb(100%, 100%, 100%)" fill-opacity="1"><g transform="translate(177.323168, 199.340027)"><g><path d="M 19.730469 -8.308594 L 19.773438 -8.308594 L 19.558594 -8.566406 C 19.039062 -9.171875 18.390625 -9.691406 17.566406 -10.125 L 17.828125 -10.382812 C 17.914062 -10.472656 18 -10.558594 18.085938 -10.6875 L 18.300781 -10.945312 C 19.167969 -11.941406 19.601562 -13.066406 19.601562 -14.363281 C 19.601562 -15.621094 19.167969 -16.789062 18.300781 -17.828125 C 17.652344 -18.5625 16.875 -19.125 15.921875 -19.558594 C 14.96875 -19.988281 13.933594 -20.207031 12.894531 -20.207031 L 1.167969 -20.207031 L 1.167969 -17.695312 L 5.234375 -17.695312 L 5.234375 -1.558594 L 1.167969 -1.558594 L 1.167969 0.953125 L 14.320312 0.953125 C 15.359375 0.953125 16.398438 0.777344 17.351562 0.347656 C 18.300781 -0.0859375 19.082031 -0.648438 19.730469 -1.429688 C 20.59375 -2.464844 21.027344 -3.589844 21.027344 -4.890625 C 21.027344 -6.144531 20.59375 -7.269531 19.730469 -8.308594 Z M 7.746094 -10.816406 L 7.789062 -17.652344 L 12.9375 -17.652344 C 13.628906 -17.652344 14.277344 -17.523438 14.882812 -17.265625 C 15.488281 -17.003906 15.964844 -16.613281 16.398438 -16.140625 C 16.875 -15.53125 17.132812 -14.925781 17.132812 -14.277344 C 17.132812 -13.628906 16.875 -13.023438 16.398438 -12.460938 L 16.183594 -12.203125 C 15.578125 -11.507812 14.753906 -11.035156 13.714844 -10.816406 Z M 17.828125 -2.898438 L 17.828125 -2.941406 C 17.394531 -2.421875 16.917969 -2.078125 16.3125 -1.816406 C 15.707031 -1.558594 15.058594 -1.429688 14.363281 -1.429688 L 7.789062 -1.429688 L 7.789062 -8.222656 L 12.71875 -8.222656 C 12.894531 -8.222656 13.109375 -8.222656 13.28125 -8.222656 C 13.457031 -8.222656 13.671875 -8.265625 13.890625 -8.308594 L 14.148438 -8.308594 C 14.839844 -8.308594 15.488281 -8.175781 16.09375 -7.917969 C 16.703125 -7.660156 17.175781 -7.269531 17.609375 -6.835938 L 17.828125 -6.578125 C 18.300781 -5.972656 18.5625 -5.363281 18.5625 -4.714844 C 18.5625 -4.066406 18.300781 -3.460938 17.828125 -2.898438 Z M 17.828125 -2.898438 "/></g></g></g><g clip-path="url(#id2)"><path fill="rgb(100%, 100%, 100%)" d="M 134.824219 204.441406 C 134.824219 204.296875 134.921875 204.167969 135.0625 204.125 C 136.023438 203.847656 139.414062 203.132812 144.203125 203.390625 C 149.5625 203.683594 152.648438 204.902344 152.648438 204.902344 C 152.648438 204.902344 153.523438 204.960938 154.453125 204.960938 L 154.453125 207.753906 C 154.453125 207.753906 153.171875 207.695312 152.882812 208.628906 C 152.589844 209.558594 151.25 215.839844 145.308594 216.074219 C 139.371094 216.304688 137.796875 213.746094 137.796875 213.746094 C 137.796875 213.746094 136.980469 212.699219 136.105469 207.695312 C 136.105469 207.695312 135.960938 207.261719 135.097656 206.609375 C 134.925781 206.480469 134.824219 206.277344 134.824219 206.0625 L 134.824219 204.441406 " fill-opacity="1" fill-rule="nonzero"/></g><path fill="rgb(100%, 100%, 100%)" d="M 137.332031 207.230469 C 137.332031 207.230469 137.039062 203.855469 144.320312 204.378906 C 151.449219 204.894531 151.777344 206.648438 151.660156 208.160156 C 151.542969 209.675781 149.855469 215.3125 144.960938 215.375 C 140.359375 215.433594 138.273438 213.800781 137.855469 212.058594 C 137.214844 209.382812 137.332031 207.230469 137.332031 207.230469 " fill-opacity="1" fill-rule="nonzero"/><g clip-path="url(#id3)"><path fill="rgb(100%, 100%, 100%)" d="M 173.792969 204.441406 C 173.792969 204.296875 173.695312 204.167969 173.554688 204.125 C 172.597656 203.847656 169.203125 203.132812 164.414062 203.390625 C 159.054688 203.683594 155.96875 204.902344 155.96875 204.902344 C 155.96875 204.902344 155.097656 204.960938 154.164062 204.960938 L 154.164062 207.753906 C 154.164062 207.753906 155.445312 207.695312 155.738281 208.628906 C 156.027344 209.558594 157.367188 215.839844 163.308594 216.074219 C 169.25 216.304688 170.820312 213.746094 170.820312 213.746094 C 170.820312 213.746094 171.636719 212.699219 172.511719 207.695312 C 172.511719 207.695312 172.65625 207.261719 173.523438 206.609375 C 173.691406 206.480469 173.792969 206.277344 173.792969 206.0625 L 173.792969 204.441406 " fill-opacity="1" fill-rule="nonzero"/></g><path fill="rgb(100%, 100%, 100%)" d="M 171.289062 207.230469 C 171.289062 207.230469 171.578125 203.855469 164.296875 204.378906 C 157.171875 204.894531 156.84375 206.648438 156.960938 208.160156 C 157.074219 209.675781 158.761719 215.3125 163.65625 215.375 C 168.257812 215.433594 170.347656 213.800781 170.765625 212.058594 C 171.40625 209.382812 171.289062 207.230469 171.289062 207.230469 " fill-opacity="1" fill-rule="nonzero"/><path fill="rgb(100%, 100%, 100%)" d="M 137.808594 211.859375 L 145.21875 204.457031 C 144.929688 204.429688 144.632812 204.402344 144.320312 204.378906 C 137.039062 203.855469 137.332031 207.230469 137.332031 207.230469 C 137.332031 207.230469 137.222656 209.277344 137.808594 211.859375 " fill-opacity="1" fill-rule="nonzero"/><path fill="rgb(100%, 100%, 100%)" d="M 145.925781 215.285156 C 148.929688 214.757812 150.53125 212.007812 151.226562 209.988281 L 145.925781 215.285156 " fill-opacity="1" fill-rule="nonzero"/><path fill="rgb(100%, 100%, 100%)" d="M 157.570312 210.46875 C 159.566406 208.449219 161.570312 206.4375 163.585938 204.4375 C 157.148438 205.015625 156.847656 206.703125 156.960938 208.160156 C 156.996094 208.628906 157.183594 209.496094 157.570312 210.46875 " fill-opacity="1" fill-rule="nonzero"/><path fill="rgb(100%, 100%, 100%)" d="M 164.199219 215.371094 C 168.417969 215.296875 170.363281 213.730469 170.765625 212.058594 C 171.128906 210.539062 171.246094 209.1875 171.28125 208.304688 C 168.90625 210.644531 166.546875 213 164.199219 215.371094 " fill-opacity="1" fill-rule="nonzero"/><g fill="rgb(100%, 100%, 100%)" fill-opacity="1"><g transform="translate(175.300774, 212.720376)"><g><path d="M 6.46875 -2.855469 L 6.433594 -2.867188 C 6.238281 -3.035156 6.023438 -3.167969 5.785156 -3.265625 C 5.542969 -3.347656 5.292969 -3.40625 5.039062 -3.445312 C 4.777344 -3.46875 4.535156 -3.480469 4.296875 -3.480469 C 4.054688 -3.480469 3.863281 -3.46875 3.695312 -3.46875 C 3.433594 -3.445312 3.167969 -3.445312 2.914062 -3.46875 C 2.664062 -3.480469 2.4375 -3.503906 2.230469 -3.550781 C 2.015625 -3.589844 1.835938 -3.636719 1.679688 -3.695312 C 1.523438 -3.757812 1.402344 -3.828125 1.332031 -3.898438 C 1.285156 -3.9375 1.261719 -3.972656 1.261719 -3.996094 C 1.246094 -4.019531 1.246094 -4.042969 1.246094 -4.066406 C 1.246094 -4.1875 1.308594 -4.296875 1.429688 -4.402344 C 1.546875 -4.5 1.726562 -4.597656 1.945312 -4.667969 C 2.160156 -4.738281 2.410156 -4.789062 2.710938 -4.835938 C 3 -4.882812 3.324219 -4.90625 3.671875 -4.90625 C 3.984375 -4.90625 4.285156 -4.871094 4.558594 -4.8125 C 4.835938 -4.753906 5.074219 -4.691406 5.28125 -4.621094 C 5.472656 -4.546875 5.628906 -4.476562 5.746094 -4.414062 L 5.929688 -4.332031 L 6.457031 -4.007812 L 6.457031 -5.699219 L 5.761719 -5.699219 L 5.761719 -5.183594 C 5.519531 -5.28125 5.230469 -5.363281 4.871094 -5.460938 C 4.511719 -5.554688 4.105469 -5.605469 3.660156 -5.605469 C 3.179688 -5.605469 2.746094 -5.566406 2.363281 -5.496094 C 1.980469 -5.425781 1.644531 -5.316406 1.378906 -5.183594 C 1.117188 -5.050781 0.910156 -4.894531 0.769531 -4.703125 C 0.625 -4.511719 0.550781 -4.308594 0.550781 -4.066406 C 0.550781 -3.816406 0.648438 -3.589844 0.851562 -3.394531 C 1.019531 -3.226562 1.246094 -3.097656 1.523438 -3.011719 C 1.789062 -2.914062 2.0625 -2.855469 2.351562 -2.820312 C 2.640625 -2.785156 2.902344 -2.761719 3.15625 -2.761719 C 3.394531 -2.761719 3.589844 -2.761719 3.71875 -2.773438 C 3.839844 -2.773438 4.007812 -2.785156 4.210938 -2.785156 C 4.402344 -2.785156 4.621094 -2.785156 4.835938 -2.761719 C 5.050781 -2.734375 5.257812 -2.6875 5.460938 -2.628906 C 5.652344 -2.566406 5.820312 -2.484375 5.953125 -2.363281 C 6.121094 -2.195312 6.203125 -1.980469 6.203125 -1.714844 C 6.203125 -1.597656 6.132812 -1.464844 6.011719 -1.34375 C 5.890625 -1.222656 5.710938 -1.105469 5.496094 -1.007812 C 5.28125 -0.910156 5.015625 -0.828125 4.714844 -0.769531 C 4.402344 -0.695312 4.078125 -0.671875 3.730469 -0.671875 C 3.515625 -0.671875 3.277344 -0.695312 2.988281 -0.769531 C 2.699219 -0.839844 2.410156 -0.925781 2.136719 -1.03125 C 1.859375 -1.140625 1.621094 -1.261719 1.402344 -1.390625 C 1.1875 -1.523438 1.042969 -1.65625 0.972656 -1.789062 L 0.371094 -1.453125 C 0.492188 -1.234375 0.683594 -1.03125 0.972656 -0.851562 C 1.261719 -0.671875 1.570312 -0.515625 1.90625 -0.382812 C 2.242188 -0.253906 2.578125 -0.15625 2.914062 -0.0859375 C 3.253906 -0.0117188 3.527344 0.0234375 3.757812 0.0234375 C 4.210938 0.0234375 4.632812 -0.0117188 5.015625 -0.109375 C 5.398438 -0.191406 5.734375 -0.3125 6.023438 -0.46875 C 6.3125 -0.625 6.527344 -0.804688 6.695312 -1.019531 C 6.851562 -1.234375 6.9375 -1.464844 6.9375 -1.714844 C 6.9375 -2.183594 6.78125 -2.566406 6.46875 -2.855469 Z M 6.46875 -2.855469 "/></g></g></g><g fill="rgb(100%, 100%, 100%)" fill-opacity="1"><g transform="translate(182.548786, 212.720376)"><g><path d="M 1.957031 -4.367188 L 2.878906 -4.367188 L 2.878906 -5.0625 L 0.347656 -5.0625 L 0.347656 -4.367188 L 1.273438 -4.367188 L 1.273438 -0.683594 L 0.347656 -0.683594 L 0.347656 0.0117188 L 2.878906 0.0117188 L 2.878906 -0.683594 L 1.957031 -0.683594 Z M 1.957031 -4.367188 "/></g></g></g><g fill="rgb(100%, 100%, 100%)" fill-opacity="1"><g transform="translate(185.788791, 212.720376)"><g><path d="M 6.097656 -4.390625 L 7.019531 -4.390625 L 7.019531 -5.089844 L 4.488281 -5.089844 L 4.488281 -4.390625 L 5.410156 -4.390625 L 5.410156 -1.175781 L 2.519531 -4.390625 L 2.878906 -4.390625 L 2.878906 -5.089844 L 0.347656 -5.089844 L 0.347656 -4.390625 L 1.273438 -4.390625 L 1.273438 -0.707031 L 0.347656 -0.707031 L 0.347656 -0.0117188 L 2.878906 -0.0117188 L 2.878906 -0.707031 L 1.957031 -0.707031 L 1.957031 -3.984375 L 4.894531 -0.707031 L 4.488281 -0.707031 L 4.488281 -0.0117188 L 7.019531 -0.0117188 L 7.019531 -0.707031 L 6.097656 -0.707031 Z M 6.097656 -4.390625 "/></g></g></g><g fill="rgb(100%, 100%, 100%)" fill-opacity="1"><g transform="translate(193.156806, 212.720376)"><g><path d="M 5.578125 -3.023438 L 5.59375 -5.027344 L 4.894531 -5.027344 L 4.894531 -4.285156 C 4.65625 -4.523438 4.367188 -4.726562 4.042969 -4.871094 C 3.707031 -5.015625 3.359375 -5.089844 2.988281 -5.089844 C 2.628906 -5.089844 2.28125 -5.015625 1.96875 -4.882812 C 1.644531 -4.753906 1.367188 -4.570312 1.128906 -4.34375 C 0.886719 -4.105469 0.695312 -3.839844 0.5625 -3.527344 C 0.421875 -3.214844 0.359375 -2.890625 0.359375 -2.542969 C 0.359375 -2.183594 0.421875 -1.859375 0.5625 -1.546875 C 0.695312 -1.234375 0.886719 -0.972656 1.128906 -0.742188 C 1.367188 -0.503906 1.644531 -0.324219 1.96875 -0.191406 C 2.28125 -0.0585938 2.628906 0 2.988281 0 C 3.457031 0 3.898438 -0.109375 4.308594 -0.335938 C 4.714844 -0.550781 5.027344 -0.863281 5.269531 -1.261719 C 5.351562 -1.402344 5.425781 -1.570312 5.496094 -1.765625 L 4.835938 -1.980469 C 4.800781 -1.859375 4.738281 -1.738281 4.667969 -1.609375 C 4.488281 -1.320312 4.246094 -1.09375 3.949219 -0.925781 C 3.648438 -0.757812 3.324219 -0.671875 2.976562 -0.671875 C 2.710938 -0.671875 2.460938 -0.71875 2.21875 -0.816406 C 1.980469 -0.910156 1.777344 -1.042969 1.609375 -1.210938 C 1.429688 -1.378906 1.285156 -1.570312 1.1875 -1.800781 C 1.078125 -2.015625 1.03125 -2.257812 1.03125 -2.519531 C 1.03125 -2.773438 1.078125 -3.011719 1.1875 -3.238281 C 1.285156 -3.457031 1.429688 -3.660156 1.609375 -3.828125 C 1.777344 -3.996094 1.980469 -4.128906 2.21875 -4.222656 C 2.460938 -4.320312 2.710938 -4.367188 2.976562 -4.367188 C 3.203125 -4.367188 3.421875 -4.320312 3.636719 -4.246094 C 3.851562 -4.175781 4.042969 -4.066406 4.210938 -3.9375 C 4.378906 -3.804688 4.511719 -3.648438 4.632812 -3.46875 C 4.753906 -3.289062 4.835938 -3.097656 4.882812 -2.878906 L 5.554688 -3.023438 Z M 5.578125 -3.023438 "/></g></g></g><g fill="rgb(100%, 100%, 100%)" fill-opacity="1"><g transform="translate(199.096816, 212.720376)"><g><path d="M 5.484375 -1.441406 L 4.789062 -1.441406 L 4.789062 -0.695312 L 2.304688 -0.695312 L 2.304688 -2.328125 L 4.378906 -2.328125 L 4.378906 -3.023438 L 2.304688 -3.023438 L 2.304688 -4.378906 L 4.789062 -4.378906 L 4.789062 -3.636719 L 5.484375 -3.636719 L 5.484375 -5.074219 L 0.347656 -5.074219 L 0.347656 -4.378906 L 1.621094 -4.378906 L 1.621094 -0.695312 L 0.347656 -0.695312 L 0.347656 0 L 5.484375 0 Z M 5.484375 -1.441406 "/></g></g></g><g fill="rgb(100%, 100%, 100%)" fill-opacity="1"><g transform="translate(204.928827, 212.720376)"><g/></g></g><g fill="rgb(100%, 100%, 100%)" fill-opacity="1"><g transform="translate(207.436834, 212.720376)"><g><path d="M 3 -0.730469 L 1.078125 -0.742188 L 1.078125 -1.03125 C 1.152344 -1.199219 1.246094 -1.355469 1.367188 -1.488281 C 1.476562 -1.609375 1.597656 -1.714844 1.714844 -1.8125 C 1.835938 -1.90625 1.96875 -1.980469 2.113281 -2.050781 C 2.242188 -2.125 2.375 -2.183594 2.519531 -2.257812 L 2.578125 -2.28125 C 2.6875 -2.328125 2.820312 -2.386719 2.964844 -2.472656 C 3.109375 -2.542969 3.238281 -2.652344 3.371094 -2.773438 C 3.503906 -2.890625 3.613281 -3.035156 3.707031 -3.214844 C 3.792969 -3.382812 3.839844 -3.601562 3.839844 -3.851562 C 3.839844 -3.910156 3.816406 -4.019531 3.792969 -4.164062 C 3.769531 -4.308594 3.683594 -4.464844 3.5625 -4.621094 C 3.46875 -4.726562 3.3125 -4.835938 3.121094 -4.957031 C 2.929688 -5.0625 2.652344 -5.125 2.292969 -5.125 C 1.644531 -5.125 1.117188 -4.824219 0.730469 -4.246094 L 0.347656 -3.539062 L 0.949219 -3.203125 L 1.308594 -3.863281 C 1.558594 -4.234375 1.882812 -4.429688 2.28125 -4.429688 C 2.472656 -4.429688 2.617188 -4.402344 2.734375 -4.355469 C 2.84375 -4.308594 2.929688 -4.261719 2.988281 -4.199219 C 3.046875 -4.128906 3.085938 -4.066406 3.109375 -4.007812 C 3.121094 -3.9375 3.132812 -3.886719 3.132812 -3.839844 C 3.132812 -3.601562 3.058594 -3.421875 2.914062 -3.289062 C 2.773438 -3.15625 2.554688 -3.023438 2.28125 -2.890625 L 2.21875 -2.867188 C 2.0625 -2.796875 1.90625 -2.710938 1.738281 -2.628906 C 1.570312 -2.542969 1.402344 -2.4375 1.246094 -2.316406 C 1.078125 -2.195312 0.9375 -2.039062 0.792969 -1.871094 C 0.648438 -1.691406 0.515625 -1.476562 0.40625 -1.234375 C 0.394531 -1.210938 0.382812 -1.1875 0.382812 -1.175781 C 0.382812 -1.152344 0.371094 -1.117188 0.371094 -1.066406 C 0.371094 -1.007812 0.371094 -0.925781 0.371094 -0.828125 C 0.371094 -0.71875 0.382812 -0.574219 0.382812 -0.382812 L 0.382812 -0.0351562 L 3.695312 -0.0351562 L 3.695312 -1.378906 L 3 -1.378906 Z M 3 -0.730469 "/></g></g></g><g fill="rgb(100%, 100%, 100%)" fill-opacity="1"><g transform="translate(211.624845, 212.720376)"><g><path d="M 2.074219 -5.125 C 1.835938 -5.125 1.609375 -5.050781 1.402344 -4.921875 C 1.1875 -4.789062 1.007812 -4.609375 0.851562 -4.378906 C 0.695312 -4.152344 0.574219 -3.886719 0.492188 -3.574219 C 0.394531 -3.265625 0.359375 -2.941406 0.359375 -2.578125 C 0.359375 -2.21875 0.394531 -1.882812 0.492188 -1.570312 C 0.574219 -1.261719 0.695312 -0.996094 0.851562 -0.769531 C 1.007812 -0.539062 1.1875 -0.359375 1.402344 -0.226562 C 1.609375 -0.0976562 1.835938 -0.0351562 2.074219 -0.0351562 C 2.316406 -0.0351562 2.53125 -0.0976562 2.746094 -0.226562 C 2.953125 -0.359375 3.132812 -0.539062 3.289062 -0.769531 C 3.445312 -0.996094 3.5625 -1.261719 3.660156 -1.570312 C 3.742188 -1.882812 3.792969 -2.21875 3.792969 -2.578125 C 3.792969 -2.941406 3.742188 -3.265625 3.660156 -3.574219 C 3.5625 -3.886719 3.445312 -4.152344 3.289062 -4.378906 C 3.132812 -4.609375 2.953125 -4.789062 2.746094 -4.921875 C 2.53125 -5.050781 2.316406 -5.125 2.074219 -5.125 Z M 2.074219 -0.71875 C 1.933594 -0.71875 1.800781 -0.769531 1.679688 -0.863281 C 1.558594 -0.960938 1.453125 -1.105469 1.355469 -1.273438 C 1.261719 -1.441406 1.175781 -1.632812 1.128906 -1.859375 C 1.066406 -2.074219 1.042969 -2.316406 1.042969 -2.566406 C 1.042969 -2.808594 1.066406 -3.046875 1.128906 -3.277344 C 1.175781 -3.492188 1.261719 -3.695312 1.355469 -3.863281 C 1.453125 -4.03125 1.558594 -4.164062 1.679688 -4.261719 C 1.800781 -4.355469 1.933594 -4.414062 2.074219 -4.414062 C 2.207031 -4.414062 2.339844 -4.355469 2.460938 -4.261719 C 2.578125 -4.164062 2.699219 -4.03125 2.796875 -3.863281 C 2.890625 -3.695312 2.964844 -3.492188 3.023438 -3.277344 C 3.070312 -3.046875 3.109375 -2.808594 3.109375 -2.566406 C 3.109375 -2.316406 3.070312 -2.074219 3.023438 -1.859375 C 2.964844 -1.632812 2.890625 -1.441406 2.796875 -1.273438 C 2.699219 -1.105469 2.578125 -0.960938 2.460938 -0.863281 C 2.339844 -0.769531 2.207031 -0.71875 2.074219 -0.71875 Z M 2.074219 -0.71875 "/></g></g></g><g fill="rgb(100%, 100%, 100%)" fill-opacity="1"><g transform="translate(215.764848, 212.720376)"><g><path d="M 3 -0.730469 L 1.078125 -0.742188 L 1.078125 -1.03125 C 1.152344 -1.199219 1.246094 -1.355469 1.367188 -1.488281 C 1.476562 -1.609375 1.597656 -1.714844 1.714844 -1.8125 C 1.835938 -1.90625 1.96875 -1.980469 2.113281 -2.050781 C 2.242188 -2.125 2.375 -2.183594 2.519531 -2.257812 L 2.578125 -2.28125 C 2.6875 -2.328125 2.820312 -2.386719 2.964844 -2.472656 C 3.109375 -2.542969 3.238281 -2.652344 3.371094 -2.773438 C 3.503906 -2.890625 3.613281 -3.035156 3.707031 -3.214844 C 3.792969 -3.382812 3.839844 -3.601562 3.839844 -3.851562 C 3.839844 -3.910156 3.816406 -4.019531 3.792969 -4.164062 C 3.769531 -4.308594 3.683594 -4.464844 3.5625 -4.621094 C 3.46875 -4.726562 3.3125 -4.835938 3.121094 -4.957031 C 2.929688 -5.0625 2.652344 -5.125 2.292969 -5.125 C 1.644531 -5.125 1.117188 -4.824219 0.730469 -4.246094 L 0.347656 -3.539062 L 0.949219 -3.203125 L 1.308594 -3.863281 C 1.558594 -4.234375 1.882812 -4.429688 2.28125 -4.429688 C 2.472656 -4.429688 2.617188 -4.402344 2.734375 -4.355469 C 2.84375 -4.308594 2.929688 -4.261719 2.988281 -4.199219 C 3.046875 -4.128906 3.085938 -4.066406 3.109375 -4.007812 C 3.121094 -3.9375 3.132812 -3.886719 3.132812 -3.839844 C 3.132812 -3.601562 3.058594 -3.421875 2.914062 -3.289062 C 2.773438 -3.15625 2.554688 -3.023438 2.28125 -2.890625 L 2.21875 -2.867188 C 2.0625 -2.796875 1.90625 -2.710938 1.738281 -2.628906 C 1.570312 -2.542969 1.402344 -2.4375 1.246094 -2.316406 C 1.078125 -2.195312 0.9375 -2.039062 0.792969 -1.871094 C 0.648438 -1.691406 0.515625 -1.476562 0.40625 -1.234375 C 0.394531 -1.210938 0.382812 -1.1875 0.382812 -1.175781 C 0.382812 -1.152344 0.371094 -1.117188 0.371094 -1.066406 C 0.371094 -1.007812 0.371094 -0.925781 0.371094 -0.828125 C 0.371094 -0.71875 0.382812 -0.574219 0.382812 -0.382812 L 0.382812 -0.0351562 L 3.695312 -0.0351562 L 3.695312 -1.378906 L 3 -1.378906 Z M 3 -0.730469 "/></g></g></g><g fill="rgb(100%, 100%, 100%)" fill-opacity="1"><g transform="translate(219.952859, 212.720376)"><g><path d="M 2.074219 -5.125 C 1.835938 -5.125 1.609375 -5.050781 1.402344 -4.921875 C 1.1875 -4.789062 1.007812 -4.609375 0.851562 -4.378906 C 0.695312 -4.152344 0.574219 -3.886719 0.492188 -3.574219 C 0.394531 -3.265625 0.359375 -2.941406 0.359375 -2.578125 C 0.359375 -2.21875 0.394531 -1.882812 0.492188 -1.570312 C 0.574219 -1.261719 0.695312 -0.996094 0.851562 -0.769531 C 1.007812 -0.539062 1.1875 -0.359375 1.402344 -0.226562 C 1.609375 -0.0976562 1.835938 -0.0351562 2.074219 -0.0351562 C 2.316406 -0.0351562 2.53125 -0.0976562 2.746094 -0.226562 C 2.953125 -0.359375 3.132812 -0.539062 3.289062 -0.769531 C 3.445312 -0.996094 3.5625 -1.261719 3.660156 -1.570312 C 3.742188 -1.882812 3.792969 -2.21875 3.792969 -2.578125 C 3.792969 -2.941406 3.742188 -3.265625 3.660156 -3.574219 C 3.5625 -3.886719 3.445312 -4.152344 3.289062 -4.378906 C 3.132812 -4.609375 2.953125 -4.789062 2.746094 -4.921875 C 2.53125 -5.050781 2.316406 -5.125 2.074219 -5.125 Z M 2.074219 -0.71875 C 1.933594 -0.71875 1.800781 -0.769531 1.679688 -0.863281 C 1.558594 -0.960938 1.453125 -1.105469 1.355469 -1.273438 C 1.261719 -1.441406 1.175781 -1.632812 1.128906 -1.859375 C 1.066406 -2.074219 1.042969 -2.316406 1.042969 -2.566406 C 1.042969 -2.808594 1.066406 -3.046875 1.128906 -3.277344 C 1.175781 -3.492188 1.261719 -3.695312 1.355469 -3.863281 C 1.453125 -4.03125 1.558594 -4.164062 1.679688 -4.261719 C 1.800781 -4.355469 1.933594 -4.414062 2.074219 -4.414062 C 2.207031 -4.414062 2.339844 -4.355469 2.460938 -4.261719 C 2.578125 -4.164062 2.699219 -4.03125 2.796875 -3.863281 C 2.890625 -3.695312 2.964844 -3.492188 3.023438 -3.277344 C 3.070312 -3.046875 3.109375 -2.808594 3.109375 -2.566406 C 3.109375 -2.316406 3.070312 -2.074219 3.023438 -1.859375 C 2.964844 -1.632812 2.890625 -1.441406 2.796875 -1.273438 C 2.699219 -1.105469 2.578125 -0.960938 2.460938 -0.863281 C 2.339844 -0.769531 2.207031 -0.71875 2.074219 -0.71875 Z M 2.074219 -0.71875 "/></g></g></g></svg>